<?xml version="1.0" encoding="UTF-8" standalone="no"?>
<svg width="119px" height="101px" viewBox="0 0 119 101" version="1.1" xmlns="http://www.w3.org/2000/svg" xmlns:xlink="http://www.w3.org/1999/xlink" xmlns:sketch="http://www.bohemiancoding.com/sketch/ns">
    <!-- Generator: Sketch 3.0.2 (7799) - http://www.bohemiancoding.com/sketch -->
    <title>federated_sample_mark</title>
    <description>Created with Sketch.</description>
    <defs></defs>
    <g id="Page-1" stroke="none" stroke-width="1" fill="none" fill-rule="evenodd" sketch:type="MSPage">
        <path d="M62.5714285,46.4910714 C63.1666696,46.4910714 63.5386897,46.2678594 63.6875,45.8214286 L64.8035714,34.6607143 C64.8035714,34.0654732 64.5059553,33.7306551 63.9107142,33.65625 C63.3154732,33.5818449 62.9434531,33.8422589 62.7946428,34.4375 L61.6785714,45.5982143 C61.6785714,46.1934554 61.9761875,46.4910714 62.5714285,46.4910714 Z M64.3571428,31.3125 C64.8035736,31.3125 65.1011897,31.0892879 65.25,30.6428571 L68.1517857,1.625 C68.3005959,1.02975893 68.0401819,0.694940848 67.3705357,0.620535714 C66.7008895,0.54613058 66.3660714,0.806544643 66.3660714,1.40178571 L63.2410714,30.4196429 C63.2410714,31.0148839 63.5386875,31.3125 64.1339285,31.3125 L64.3571428,31.3125 Z M60.3392857,46.4910714 L60.5625,46.4910714 C61.157741,46.4910714 61.3809531,46.1934554 61.2321428,45.5982143 L60.7857142,39.5714286 L59.6696428,30.4196429 C59.6696428,29.8244018 59.3348247,29.5639877 58.6651785,29.6383929 C57.9955323,29.712798 57.7351183,30.0476161 57.8839285,30.6428571 L58.7767857,39.7946429 L59.4464285,45.8214286 C59.4464285,46.2678594 59.7440446,46.4910714 60.3392857,46.4910714 Z M58.3303571,27.2946429 C59.0744084,27.2946429 59.3720245,26.9970268 59.2232142,26.4017857 L58.7767857,19.9285714 C58.6279754,19.3333304 58.2559553,19.0357143 57.6607142,19.0357143 C57.0654732,19.0357143 56.7678571,19.3333304 56.7678571,19.9285714 L57.4375,26.625 C57.4375,27.0714308 57.735116,27.2946429 58.3303571,27.2946429 Z M58.1071428,46.9375 L58.3303571,46.9375 C58.9255982,46.7886897 59.1488102,46.4166696 59,45.8214286 L57.2142857,40.2410714 L56.0982142,36.4464286 C55.8005937,35.8511875 55.3541696,35.6651775 54.7589285,35.8883929 C54.1636875,36.1116083 54.0148794,36.5208304 54.3125,37.1160714 L55.4285714,40.6875 L57.2142857,46.2678571 C57.3630959,46.7142879 57.660712,46.9375 58.1071428,46.9375 Z M53.8660714,33.7678571 L54.0892857,33.7678571 C54.6845267,33.4702366 54.9077388,33.0982165 54.7589285,32.6517857 L49.8482142,17.25 C49.5505937,16.6547589 49.1041696,16.4315469 48.5089285,16.5803571 C47.9136875,16.7291674 47.7648794,17.1011875 48.0625,17.6964286 L52.9732142,33.0982143 C53.1220245,33.5446451 53.4196406,33.7678571 53.8660714,33.7678571 Z M56.0982142,48.0535714 C56.2470245,48.0535714 56.3958325,47.9791674 56.5446428,47.8303571 C57.1398839,47.5327366 57.2142879,47.0863125 56.7678571,46.4910714 L51.4107142,36.8928571 C51.1130937,36.4464263 50.6666696,36.3720223 50.0714285,36.6696429 C49.4761875,36.9672634 49.3273794,37.3392835 49.625,37.7857143 L55.2053571,47.3839286 C55.3541674,47.8303594 55.6517834,48.0535714 56.0982142,48.0535714 Z M48.5089285,34.6607143 L48.9553571,34.6607143 C49.4017879,34.3630938 49.4761919,33.9166696 49.1785714,33.3214286 L37.7946428,13.4553571 C37.4970223,12.8601161 37.0505982,12.711308 36.4553571,13.0089286 C35.860116,13.3065491 35.711308,13.7529732 36.0089285,14.3482143 L47.6160714,34.2142857 C47.7648817,34.5119063 48.0624977,34.6607143 48.5089285,34.6607143 Z M54.3125,49.3928571 C54.4613102,49.3928571 54.6101183,49.2440491 54.7589285,48.9464286 C55.2053593,48.648808 55.2797633,48.2767879 54.9821428,47.8303571 L50.9642857,43.3660714 L48.7321428,40.9107143 C48.4345223,40.4642835 48.0253002,40.4642835 47.5044642,40.9107143 C46.9836283,41.3571451 46.9464263,41.8035692 47.3928571,42.25 L49.625,44.7053571 L53.4196428,48.9464286 C53.7172633,49.2440491 54.0148794,49.3928571 54.3125,49.3928571 Z M59.2232142,79.3035714 C59.8184553,79.3035714 60.1160714,79.0059554 60.1160714,78.4107143 L61.2321428,67.4732143 C61.3809531,66.8779732 61.120539,66.5431551 60.4508928,66.46875 C59.7812466,66.3943449 59.4464285,66.6547589 59.4464285,67.25 L58.3303571,78.1875 C58.1815468,78.7827411 58.4791629,79.1547612 59.2232142,79.3035714 Z M57.2142857,99.1696429 C57.6607165,99.1696429 57.9583325,98.8720268 58.1071428,98.2767857 L59.6696428,82.6517857 C59.8184531,81.9077344 59.558039,81.4985123 58.8883928,81.4241071 C58.2187466,81.349702 57.8839285,81.6845201 57.8839285,82.4285714 L56.0982142,98.2767857 C56.0982142,98.8720268 56.3958303,99.1696429 56.9910714,99.1696429 L57.2142857,99.1696429 Z M64.3571428,83.3214286 C64.9523839,83.1726183 65.25,82.8005982 65.25,82.2053571 L64.1339285,73.0535714 L63.6875,67.25 C63.5386897,66.6547589 63.1666696,66.3943449 62.5714285,66.46875 C61.9761875,66.5431551 61.6785714,66.8779732 61.6785714,67.4732143 L62.3482142,73.2767857 L63.2410714,82.4285714 C63.3898817,83.0238125 63.7619017,83.3214286 64.3571428,83.3214286 Z M67.9285714,77.0714286 L68.1517857,77.0714286 C68.7470267,76.9226183 68.9702388,76.5505982 68.8214285,75.9553571 L67.4821428,72.1607143 L65.6964285,66.5803571 C65.5476183,65.9851161 65.1755982,65.761904 64.5803571,65.9107143 C63.985116,66.0595246 63.761904,66.4315446 63.9107142,67.0267857 L65.9196428,72.6071429 L67.0357142,76.4017857 C67.1845245,76.8482165 67.4821406,77.0714286 67.9285714,77.0714286 Z M72.8392857,92.4732143 L73.0625,92.4732143 C73.657741,92.1755938 73.8809531,91.7291696 73.7321428,91.1339286 L70.1607142,79.75 C69.8630937,79.1547589 69.4166696,78.9687489 68.8214285,79.1919643 C68.2261875,79.4151797 68.0773794,79.8244018 68.375,80.4196429 L71.9464285,91.8035714 C72.0952388,92.2500022 72.3928549,92.4732143 72.8392857,92.4732143 Z M72.6160714,76.4017857 L73.0625,76.4017857 C73.5089308,76.1041652 73.5833348,75.6577411 73.2857142,75.0625 L67.7053571,65.4642857 C67.4077366,64.8690446 66.9985145,64.7202366 66.4776785,65.0178571 C65.9568426,65.3154777 65.8452366,65.7619018 66.1428571,66.3571429 L71.7232142,75.9553571 C71.8720245,76.2529777 72.1696406,76.4017857 72.6160714,76.4017857 Z M86.2321428,100.0625 C86.3809531,100.0625 86.5297611,99.988096 86.6785714,99.8392857 C87.1250022,99.5416652 87.1994062,99.1696451 86.9017857,98.7232143 L75.2946428,78.6339286 C74.9970223,78.0386875 74.5878002,77.8898795 74.0669642,78.1875 C73.5461283,78.4851205 73.4345223,78.9315446 73.7321428,79.5267857 L85.3392857,99.6160714 C85.4880959,99.913692 85.785712,100.0625 86.2321428,100.0625 Z M74.8482142,72.1607143 C75.1458348,72.1607143 75.3690468,72.0863103 75.5178571,71.9375 C75.9642879,71.4910692 75.9642879,71.0446451 75.5178571,70.5982143 L73.5089285,68.3660714 L69.4910714,63.9017857 C69.0446406,63.4553549 68.5982165,63.4553549 68.1517857,63.9017857 C67.7053549,64.3482165 67.7053549,64.7946406 68.1517857,65.2410714 L72.1696428,69.4821429 L74.1785714,71.9375 C74.3273817,72.0863103 74.5505937,72.1607143 74.8482142,72.1607143 Z M82.2142857,80.4196429 C82.5119062,80.4196429 82.7351183,80.3452388 82.8839285,80.1964286 C83.3303593,79.898808 83.3303593,79.4523839 82.8839285,78.8571429 L78.4196428,73.7232143 C77.973212,73.2767835 77.5267879,73.2395815 77.0803571,73.6116071 C76.6339263,73.9836328 76.5595223,74.4672589 76.8571428,75.0625 L81.5446428,80.1964286 C81.6934531,80.3452388 81.9166651,80.4196429 82.2142857,80.4196429 Z M89.5803571,88.6785714 C89.7291674,88.6785714 89.9523794,88.5297634 90.25,88.2321429 C90.6964308,87.9345223 90.6964308,87.5625022 90.25,87.1160714 L85.7857142,81.9821429 C85.3392834,81.5357121 84.8928593,81.5357121 84.4464285,81.9821429 C83.9999977,82.4285737 83.9255937,82.8749978 84.2232142,83.3214286 L88.9107142,88.2321429 C89.0595245,88.5297634 89.2827366,88.6785714 89.5803571,88.6785714 Z M52.75,50.9553571 C53.0476205,50.9553571 53.2708325,50.8065491 53.4196428,50.5089286 C53.8660736,50.0624978 53.7916696,49.6904777 53.1964285,49.3928571 L44.2678571,42.6964286 C43.8214263,42.398808 43.4122042,42.5104141 43.0401785,43.03125 C42.6681529,43.5520859 42.7053549,43.961308 43.1517857,44.2589286 L52.0803571,50.7321429 C52.2291674,50.8809531 52.4523794,50.9553571 52.75,50.9553571 Z M40.4732142,42.0267857 C40.7708348,42.0267857 40.9940468,41.8779777 41.1428571,41.5803571 C41.4404776,41.1339263 41.3660736,40.6875022 40.9196428,40.2410714 L27.9732142,31.0892857 C27.5267834,30.6428549 27.1175613,30.6800569 26.7455357,31.2008929 C26.37351,31.7217288 26.410712,32.1309509 26.8571428,32.4285714 L39.8035714,41.8035714 C39.9523817,41.9523817 40.1755937,42.0267857 40.4732142,42.0267857 Z M51.6339285,52.9642857 C51.9315491,52.9642857 52.1547611,52.7410737 52.3035714,52.2946429 C52.6011919,51.8482121 52.4523839,51.476192 51.8571428,51.1785714 L46.5,48.7232143 L38.0178571,44.9285714 C37.422616,44.7797612 37.0133939,44.9657712 36.7901785,45.4866071 C36.5669631,46.0074431 36.7529732,46.4166652 37.3482142,46.7142857 L45.8303571,50.5089286 L51.1875,52.9642857 L51.6339285,52.9642857 Z M34,45.1517857 C34.2976205,45.1517857 34.5952366,45.0029777 34.8928571,44.7053571 C35.0416674,44.1101161 34.8928593,43.663692 34.4464285,43.3660714 L27.5267857,40.2410714 C26.9315446,39.9434509 26.4851205,40.0550569 26.1875,40.5758929 C25.8898794,41.0967288 26.0386875,41.5059509 26.6339285,41.8035714 L33.5535714,45.1517857 L34,45.1517857 Z M50.7410714,55.1964286 C51.3363125,55.1964286 51.7083325,54.8988125 51.8571428,54.3035714 C51.8571428,53.7083304 51.5595267,53.3363103 50.9642857,53.1875 L45.3839285,52.0714286 L41.3660714,51.1785714 C40.7708303,51.0297612 40.3988102,51.2901752 40.25,51.9598214 C40.1011897,52.6294676 40.3988058,52.9642857 41.1428571,52.9642857 L44.9375,53.8571429 L50.7410714,55.1964286 Z M37.125,52.2946429 C37.720241,52.2946429 38.0178571,51.9970268 38.0178571,51.4017857 C38.1666674,50.8065446 37.9434553,50.4345246 37.3482142,50.2857143 L1.63392853,42.6964286 C1.03868746,42.5476183 0.666667368,42.7708304 0.5178571,43.3660714 C0.369046832,43.9613125 0.592258886,44.3333326 1.18749996,44.4821429 L37.125,52.2946429 Z M50.5178571,57.4285714 C51.2619084,57.4285714 51.6339285,57.0937533 51.6339285,56.4241071 C51.6339285,55.7544609 51.2619084,55.4196429 50.5178571,55.4196429 L39.5803571,55.4196429 C38.985116,55.4196429 38.6875,55.7544609 38.6875,56.4241071 C38.6875,57.0937533 38.985116,57.4285714 39.5803571,57.4285714 L50.5178571,57.4285714 Z M35.3392857,57.4285714 C35.9345267,57.4285714 36.2321428,57.0937533 36.2321428,56.4241071 C36.2321428,55.7544609 35.9345267,55.4196429 35.3392857,55.4196429 L26.4107142,55.4196429 C25.8154732,55.4196429 25.5178571,55.7544609 25.5178571,56.4241071 C25.5178571,57.0937533 25.8154732,57.4285714 26.4107142,57.4285714 L35.3392857,57.4285714 Z M42.0357142,61.6696429 C42.0357142,61.6696429 42.1101183,61.5952388 42.2589285,61.4464286 L45.3839285,60.7767857 L50.9642857,59.6607143 C51.5595267,59.511904 51.8199408,59.1398839 51.7455357,58.5446429 C51.6711305,57.9494018 51.3363125,57.7261897 50.7410714,57.875 L44.9375,58.9910714 L41.8125,59.6607143 C41.2172589,59.8095246 40.9940468,60.1815446 41.1428571,60.7767857 C41.1428571,61.3720268 41.4404732,61.6696429 42.0357142,61.6696429 Z M79.3125,70.375 C79.6101205,70.375 79.8333325,70.226192 79.9821428,69.9285714 C80.4285736,69.4821406 80.4285736,69.0357165 79.9821428,68.5892857 L70.8303571,62.1160714 C70.3839263,61.8184509 69.9747042,61.8928549 69.6026785,62.3392857 C69.2306529,62.7857165 69.2678549,63.2321406 69.7142857,63.6785714 L78.8660714,70.1517857 C79.0148817,70.300596 79.1636897,70.375 79.3125,70.375 Z M116.8125,97.6071429 C117.11012,97.6071429 117.333333,97.4583348 117.482143,97.1607143 C117.779763,96.7142835 117.705359,96.2678594 117.258929,95.8214286 L83.1071428,71.0446429 C82.660712,70.7470223 82.2514899,70.8214263 81.8794642,71.2678571 C81.5074386,71.7142879 81.6190446,72.1607121 82.2142857,72.6071429 L116.142857,97.3839286 C116.291667,97.5327388 116.514879,97.6071429 116.8125,97.6071429 Z M85.3392857,67.9196429 C85.7857165,67.9196429 86.0833325,67.7708348 86.2321428,67.4732143 C86.3809531,66.8779732 86.232145,66.4315491 85.7857142,66.1339286 L77.3035714,62.3392857 L71.9464285,60.1071429 C71.3511875,59.8095223 70.9047633,59.9583304 70.6071428,60.5535714 C70.3095223,61.1488125 70.4583303,61.5208326 71.0535714,61.6696429 L76.4107142,64.125 L84.8928571,67.9196429 L85.3392857,67.9196429 Z M95.3839285,72.6071429 C95.6815491,72.6071429 95.9047611,72.3839308 96.0535714,71.9375 C96.3511919,71.3422589 96.2023839,70.9702388 95.6071428,70.8214286 L89.5803571,67.9196429 C88.985116,67.6220223 88.5386919,67.7708304 88.2410714,68.3660714 C87.9434509,68.9613125 88.0922589,69.3333326 88.6875,69.4821429 L94.9375,72.3839286 C95.0863102,72.5327388 95.2351183,72.6071429 95.3839285,72.6071429 Z M81.7678571,61.6696429 C82.2142879,61.6696429 82.511904,61.4464308 82.6607142,61 C82.8095245,60.4047589 82.5863125,60.0327388 81.9910714,59.8839286 L78.1964285,58.9910714 L72.3928571,57.875 C71.797616,57.7261897 71.4255959,57.9494018 71.2767857,58.5446429 C71.1279754,59.1398839 71.3511875,59.511904 71.9464285,59.6607143 L77.75,60.7767857 L81.5446428,61.6696429 L81.7678571,61.6696429 Z M104.758929,66.5803571 C105.205359,66.5803571 105.502975,66.3571451 105.651786,65.9107143 C105.800596,65.3154732 105.577384,64.9434531 104.982143,64.7946429 L86.0089285,60.7767857 C85.4136875,60.6279754 85.0416674,60.8511875 84.8928571,61.4464286 C84.7440468,62.0416696 84.9672589,62.4136897 85.5625,62.5625 L104.535714,66.5803571 L104.758929,66.5803571 Z M83.5535714,57.4285714 C84.1488125,57.4285714 84.4464285,57.0937533 84.4464285,56.4241071 C84.4464285,55.7544609 84.1488125,55.4196429 83.5535714,55.4196429 L72.3928571,55.4196429 C71.797616,55.4196429 71.5,55.7544609 71.5,56.4241071 C71.5,57.0937533 71.797616,57.4285714 72.3928571,57.4285714 L83.5535714,57.4285714 Z M72.1696428,55.1964286 L72.3928571,55.1964286 L78.1964285,53.8571429 L81.3214285,53.1875 C81.9166696,53.0386897 82.1398817,52.6666696 81.9910714,52.0714286 C81.8422611,51.4761875 81.470241,51.2529754 80.875,51.4017857 L77.75,52.0714286 L71.9464285,53.1875 C71.3511875,53.3363103 71.1279754,53.7083304 71.2767857,54.3035714 C71.4255959,54.8988125 71.723212,55.1964286 72.1696428,55.1964286 Z M85.1160714,52.2946429 L85.3392857,52.2946429 L92.0357142,50.9553571 C92.6309553,50.8065469 92.8913694,50.4345268 92.8169642,49.8392857 C92.7425591,49.2440446 92.407741,49.0208326 91.8125,49.1696429 L84.8928571,50.5089286 C84.297616,50.6577388 84.074404,51.0297589 84.2232142,51.625 C84.2232142,52.0714308 84.5208303,52.2946429 85.1160714,52.2946429 Z M95.8303571,50.0625 L96.0535714,50.0625 L107.660714,47.6071429 C108.255955,47.4583326 108.479167,47.0863125 108.330357,46.4910714 C108.181547,45.8958304 107.809527,45.6726183 107.214286,45.8214286 L95.8303571,48.2767857 C95.0863058,48.425596 94.7886897,48.7976161 94.9375,49.3928571 C95.0863102,49.8392879 95.3839263,50.0625 95.8303571,50.0625 Z M41.3660714,66.3571429 L41.8125,66.3571429 L51.8571428,61.6696429 C52.4523839,61.5208326 52.6383939,61.1488125 52.4151785,60.5535714 C52.1919631,59.9583304 51.782741,59.8095223 51.1875,60.1071429 L41.1428571,64.5714286 C40.547616,64.8690491 40.324404,65.2410692 40.4732142,65.6875 C40.7708348,66.1339308 41.0684508,66.3571429 41.3660714,66.3571429 Z M23.0625,74.3928571 L23.5089285,74.3928571 L38.0178571,67.9196429 C38.6130982,67.6220223 38.7619062,67.2128002 38.4642857,66.6919643 C38.1666651,66.1711283 37.794645,65.9851183 37.3482142,66.1339286 L22.6160714,72.6071429 C22.1696406,72.9047634 22.0208325,73.3511875 22.1696428,73.9464286 C22.3184531,74.2440491 22.6160692,74.3928571 23.0625,74.3928571 Z M40.4732142,72.8303571 C40.6220245,72.8303571 40.7708325,72.7559531 40.9196428,72.6071429 L48.5089285,67.0267857 L53.1964285,63.6785714 C53.7916696,63.2321406 53.9032756,62.7857165 53.53125,62.3392857 C53.1592243,61.8928549 52.6755982,61.8184509 52.0803571,62.1160714 L47.3928571,65.4642857 L39.8035714,71.0446429 C39.3571406,71.3422634 39.3571406,71.7886875 39.8035714,72.3839286 C39.9523817,72.6815491 40.1755937,72.8303571 40.4732142,72.8303571 Z M31.3214285,79.3035714 C31.4702388,79.3035714 31.6190468,79.2291674 31.7678571,79.0803571 L37.5714285,75.0625 C38.1666696,74.6160692 38.2782756,74.1324431 37.90625,73.6116071 C37.5342243,73.0907712 37.1250022,73.0535692 36.6785714,73.5 L30.6517857,77.5178571 C30.2053549,77.8154777 30.1309508,78.2619018 30.4285714,78.8571429 C30.7261919,79.1547634 31.023808,79.3035714 31.3214285,79.3035714 Z M47.6160714,72.8303571 C47.9136919,72.8303571 48.136904,72.6815491 48.2857142,72.3839286 L50.9642857,69.4821429 L54.9821428,65.2410714 C55.2797633,64.7946406 55.2053593,64.3482165 54.7589285,63.9017857 C54.3124977,63.4553549 53.8660736,63.4553549 53.4196428,63.9017857 L49.625,68.3660714 L46.9464285,71.2678571 C46.4999977,71.7142879 46.4999977,72.1607121 46.9464285,72.6071429 C47.2440491,72.7559531 47.4672611,72.8303571 47.6160714,72.8303571 Z M28.8660714,93.5892857 C29.1636919,93.5892857 29.386904,93.4404777 29.5357142,93.1428571 L45.6071428,75.5089286 C46.0535736,75.0624978 46.0163716,74.6160737 45.4955357,74.1696429 C44.9746997,73.7232121 44.5654776,73.7976161 44.2678571,74.3928571 L28.1964285,92.0267857 C27.7499977,92.4732165 27.8244017,92.9196406 28.4196428,93.3660714 C28.5684531,93.5148817 28.7172611,93.5892857 28.8660714,93.5892857 Z M50.5178571,76.4017857 C50.8154776,76.4017857 51.1130937,76.2529777 51.4107142,75.9553571 L56.7678571,66.3571429 C57.2142879,65.7619018 57.1398839,65.3154777 56.5446428,65.0178571 C55.9494017,64.7202366 55.5029776,64.8690446 55.2053571,65.4642857 L49.625,75.0625 C49.3273794,75.6577411 49.4761875,76.1041652 50.0714285,76.4017857 L50.5178571,76.4017857 Z M44.9375,86.2232143 C45.2351205,86.2232143 45.4583325,86.0744063 45.6071428,85.7767857 L49.1785714,79.5267857 C49.6250022,78.9315446 49.5505982,78.4851205 48.9553571,78.1875 C48.360116,77.8898795 47.9136919,78.0386875 47.6160714,78.6339286 L44.0446428,84.8839286 C43.7470223,85.4791696 43.8214263,85.9255938 44.2678571,86.2232143 L44.9375,86.2232143 Z M55.4285714,76.4017857 C55.8750022,76.4017857 56.1726183,76.1785737 56.3214285,75.7321429 L57.2142857,72.6071429 L59,67.0267857 C59.1488102,66.4315446 58.9628002,66.0595246 58.4419642,65.9107143 C57.9211283,65.761904 57.5119062,65.9851161 57.2142857,66.5803571 L55.4285714,72.1607143 L54.5357142,75.2857143 C54.2380937,75.8809554 54.3869017,76.2529754 54.9821428,76.4017857 L55.4285714,76.4017857 Z M71.5,52.9642857 L71.9464285,52.9642857 L81.9910714,48.2767857 C82.5863125,48.1279754 82.7351205,47.7559554 82.4375,47.1607143 C82.1398794,46.5654732 81.7678593,46.4166652 81.3214285,46.7142857 L71.0535714,51.1785714 C70.4583303,51.476192 70.3095223,51.8482121 70.6071428,52.2946429 C70.7559531,52.7410737 71.0535692,52.9642857 71.5,52.9642857 Z M85.3392857,46.7142857 C85.4880959,46.7142857 85.636904,46.7142857 85.7857142,46.7142857 L108.776786,36.4464286 C109.372027,36.148808 109.520835,35.7395859 109.223214,35.21875 C108.925594,34.6979141 108.47917,34.511904 107.883929,34.6607143 L85.1160714,44.9285714 C84.5208303,45.226192 84.2976183,45.6726161 84.4464285,46.2678571 C84.5952388,46.5654777 84.8928549,46.7142857 85.3392857,46.7142857 Z M70.3839285,50.9553571 C70.5327388,50.9553571 70.6815468,50.8809531 70.8303571,50.7321429 L75.7410714,47.3839286 L83.1071428,41.8035714 C83.7023839,41.5059509 83.8139899,41.0967288 83.4419642,40.5758929 C83.0699386,40.0550569 82.5863125,40.0178549 81.9910714,40.4642857 L74.625,45.8214286 L69.7142857,49.3928571 C69.2678549,49.6904777 69.1934508,50.0624978 69.4910714,50.5089286 C69.7886919,50.8065491 70.086308,50.9553571 70.3839285,50.9553571 Z M86.0089285,39.5714286 L86.4553571,39.5714286 L91.8125,35.7767857 C92.2589308,35.3303549 92.3333348,34.8839308 92.0357142,34.4375 C91.7380937,33.9910692 91.2916696,33.9166652 90.6964285,34.2142857 L85.3392857,38.0089286 C84.8928549,38.3065491 84.8184509,38.7529732 85.1160714,39.3482143 C85.2648817,39.4970246 85.5624977,39.5714286 86.0089285,39.5714286 Z M68.8214285,49.3928571 C69.1190491,49.3928571 69.3422611,49.2440491 69.4910714,48.9464286 L73.5089285,44.7053571 L76.1875,41.5803571 C76.4851205,41.1339263 76.4107165,40.7247042 75.9642857,40.3526786 C75.5178549,39.9806529 75.0714308,40.0178549 74.625,40.4642857 L71.9464285,43.3660714 L68.1517857,47.8303571 C67.7053549,48.2767879 67.7053549,48.648808 68.1517857,48.9464286 C68.3005959,49.2440491 68.523808,49.3928571 68.8214285,49.3928571 Z M78.1964285,38.9017857 C78.4940491,38.9017857 78.7172611,38.8273817 78.8660714,38.6785714 L91.8125,24.3928571 C92.2589308,23.7976161 92.2589308,23.31399 91.8125,22.9419643 C91.3660692,22.5699386 90.919645,22.6071406 90.4732142,23.0535714 L77.5267857,37.3392857 C77.0803549,37.7857165 77.0803549,38.2321406 77.5267857,38.6785714 C77.6755959,38.8273817 77.898808,38.9017857 78.1964285,38.9017857 Z M67.0357142,48.0535714 C67.3333348,48.0535714 67.5565468,47.8303594 67.7053571,47.3839286 L73.2857142,37.7857143 C73.5833348,37.3392835 73.4717288,36.9672634 72.9508928,36.6696429 C72.4300569,36.3720223 72.0208348,36.4464263 71.7232142,36.8928571 L66.1428571,46.4910714 C65.8452366,47.0863125 65.9940446,47.5327366 66.5892857,47.8303571 C66.7380959,47.9791674 66.886904,48.0535714 67.0357142,48.0535714 Z M74.625,34.6607143 C74.9226205,34.6607143 75.1458325,34.5119063 75.2946428,34.2142857 L79.0892857,27.9642857 C79.3869062,27.5178549 79.2753002,27.1458348 78.7544642,26.8482143 C78.2336283,26.5505938 77.7500022,26.6249978 77.3035714,27.0714286 L73.7321428,33.3214286 C73.4345223,33.9166696 73.5833303,34.3630938 74.1785714,34.6607143 L74.625,34.6607143 Z M64.8035714,46.9375 C65.2500022,46.9375 65.5476183,46.7142879 65.6964285,46.2678571 L67.4821428,40.6875 L68.5982142,37.7857143 C68.7470245,37.1904732 68.5238125,36.7812511 67.9285714,36.5580357 C67.3333303,36.3348203 66.9613102,36.5208304 66.8125,37.1160714 L65.9196428,40.2410714 L63.9107142,45.8214286 C63.761904,46.4166696 63.985116,46.7886897 64.5803571,46.9375 L64.8035714,46.9375 Z M69.0446428,34.4375 C69.4910736,34.4375 69.7886897,34.2142879 69.9375,33.7678571 L71.5,29.0803571 C71.6488102,28.4851161 71.4255982,28.113096 70.8303571,27.9642857 C70.235116,27.8154754 69.8630959,28.0386875 69.7142857,28.6339286 L68.1517857,33.3214286 C67.8541651,33.9166696 68.0029732,34.2886897 68.5982142,34.4375 L69.0446428,34.4375 Z" id="federated_sample_mark" fill="#8DC63F" sketch:type="MSShapeGroup"></path>
    </g>
</svg>