<?xml version="1.0" encoding="UTF-8" standalone="no"?>
<svg width="414px" height="124px" viewBox="0 0 414 124" version="1.1" xmlns="http://www.w3.org/2000/svg" xmlns:xlink="http://www.w3.org/1999/xlink" xmlns:sketch="http://www.bohemiancoding.com/sketch/ns">
    <!-- Generator: Sketch 3.0.4 (8053) - http://www.bohemiancoding.com/sketch -->
    <title>federated_sample</title>
    <desc>Created with Sketch.</desc>
    <defs></defs>
    <g id="Page-1" stroke="none" stroke-width="1" fill="none" fill-rule="evenodd" sketch:type="MSPage">
        <g id="federated_sample" sketch:type="MSLayerGroup" transform="translate(0.000000, 1.000000)" fill="#7AB642">
            <path d="M145.21,75.805 L146.635,75.805 C147.141,75.805 147.684,75.195 147.684,74.716 L147.684,57.605 C147.684,57.098 147.141,56.488 146.635,56.488 L145.21,56.488 L145.21,54.249 L163.372,54.249 L163.372,60.76 L160.935,60.76 L160.492,56.652 L151.615,56.652 L151.615,65.232 L156.123,65.232 L156.426,62.349 L158.766,62.349 L158.766,70.583 L156.426,70.583 L156.123,67.568 L151.615,67.568 L151.615,75.805 L154.665,75.805 L154.665,77.971 L145.21,77.971 L145.21,75.805" id="Fill-1" sketch:type="MSShapeGroup"></path>
            <path d="M175.508,67.465 C175.373,63.706 173.914,62.283 171.339,62.283 C168.664,62.283 166.933,63.976 166.596,67.465 L175.508,67.465 L175.508,67.465 Z M162.696,69.164 C162.696,63.533 166.189,60.01 171.339,60.01 C176.322,60.01 179.202,62.62 179.202,68.551 C179.202,69.06 179.17,69.534 179.17,69.667 L166.528,69.667 C166.662,73.803 168.46,75.832 171.982,75.832 C174.492,75.832 175.643,74.958 176.558,73.836 L178.659,73.836 L178.659,76.348 C177.269,77.261 175.271,78.174 171.711,78.174 C165.749,78.174 162.696,74.716 162.696,69.164 L162.696,69.164 Z" id="Fill-2" sketch:type="MSShapeGroup"></path>
            <path d="M193.878,73.533 L193.878,64.079 C192.758,63.196 191.437,62.586 189.608,62.586 C186.997,62.586 184.456,64.012 184.456,69.194 C184.456,74.616 186.83,75.905 189.097,75.905 C191.234,75.905 192.692,74.819 193.878,73.533 M180.659,69.294 C180.659,62.517 184.86,60.01 188.425,60.01 C191.066,60.01 192.725,60.96 193.878,62.11 L193.878,56.488 L191.302,56.488 L191.302,54.249 L196.862,54.249 C197.335,54.249 197.537,54.586 197.537,55.165 L197.537,74.855 C197.537,75.295 198.012,75.805 198.45,75.805 L199.774,75.805 L199.774,77.971 L194.658,77.971 C194.25,77.971 193.978,77.464 193.946,75.535 C192.692,76.991 190.759,78.174 188.048,78.174 C184.456,78.174 180.659,76.108 180.659,69.294" id="Fill-3" sketch:type="MSShapeGroup"></path>
            <path d="M213.433,67.465 C213.298,63.706 211.839,62.283 209.267,62.283 C206.589,62.283 204.861,63.976 204.523,67.465 L213.433,67.465 L213.433,67.465 Z M200.624,69.164 C200.624,63.533 204.113,60.01 209.267,60.01 C214.246,60.01 217.128,62.62 217.128,68.551 C217.128,69.06 217.095,69.534 217.095,69.667 L204.451,69.667 C204.591,73.803 206.382,75.832 209.909,75.832 C212.418,75.832 213.568,74.958 214.484,73.836 L216.582,73.836 L216.582,76.348 C215.196,77.261 213.195,78.174 209.635,78.174 C203.674,78.174 200.624,74.716 200.624,69.164 L200.624,69.164 Z" id="Fill-4" sketch:type="MSShapeGroup"></path>
            <path d="M218.281,75.805 L219.602,75.805 C220.042,75.805 220.519,75.329 220.519,74.886 L220.519,63.466 C220.519,63.06 220.042,62.517 219.602,62.517 L218.146,62.517 L218.146,60.214 L223.33,60.214 C223.838,60.214 224.177,60.657 224.177,62.586 L224.177,63.163 C225.429,61.57 226.988,60.077 229.464,60.077 C229.869,60.077 230.212,60.147 230.479,60.214 L230.479,63.229 L229.767,63.229 C227.057,63.229 225.497,63.876 224.177,65.025 L224.177,75.805 L226.988,75.805 L226.988,77.971 L218.281,77.971 L218.281,75.805" id="Fill-5" sketch:type="MSShapeGroup"></path>
            <path d="M241.903,73.872 L241.903,70.01 C240.888,69.807 239.767,69.667 238.582,69.667 C236.008,69.667 234.447,70.583 234.447,72.786 C234.447,74.958 235.667,75.832 237.734,75.832 C239.6,75.832 240.817,75.025 241.903,73.872 M230.822,72.889 C230.822,69.224 233.736,67.498 237.836,67.498 C239.427,67.498 240.65,67.671 241.903,67.974 L241.903,65.632 C241.903,63.366 240.58,62.556 238.311,62.556 C235.97,62.556 234.65,63.366 233.701,64.212 L232.008,64.212 L232.008,61.4 C233.533,60.657 235.702,60.01 238.954,60.01 C243.123,60.01 245.562,61.336 245.562,65.265 L245.562,74.716 C245.562,75.395 246.003,75.805 246.648,75.805 L247.563,75.805 L247.563,77.634 C247.089,77.944 246.243,78.177 245.222,78.177 C243.293,78.177 242.274,77.398 242.005,75.768 C240.682,77.398 238.954,78.177 236.583,78.177 C233.193,78.177 230.822,76.412 230.822,72.889" id="Fill-6" sketch:type="MSShapeGroup"></path>
            <path d="M250.141,73.769 L250.141,62.517 L247.869,62.517 L247.869,60.214 L250.141,60.214 L250.141,55.438 L253.802,55.438 L253.802,60.214 L257.832,60.214 L257.832,62.517 L253.802,62.517 L253.802,73.363 C253.802,75.365 254.478,75.802 256.275,75.802 L258.069,75.802 L258.069,77.768 C257.426,78.011 256.375,78.208 255.118,78.208 C251.969,78.208 250.141,77.091 250.141,73.769" id="Fill-7" sketch:type="MSShapeGroup"></path>
            <path d="M271.759,67.465 C271.626,63.706 270.168,62.283 267.591,62.283 C264.915,62.283 263.187,63.976 262.847,67.465 L271.759,67.465 L271.759,67.465 Z M258.949,69.164 C258.949,63.533 262.441,60.01 267.591,60.01 C272.575,60.01 275.456,62.62 275.456,68.551 C275.456,69.06 275.421,69.534 275.421,69.667 L262.781,69.667 C262.916,73.803 264.712,75.832 268.237,75.832 C270.746,75.832 271.894,74.958 272.814,73.836 L274.913,73.836 L274.913,76.348 C273.522,77.261 271.524,78.174 267.966,78.174 C261.999,78.174 258.949,74.716 258.949,69.164 L258.949,69.164 Z" id="Fill-8" sketch:type="MSShapeGroup"></path>
            <path d="M290.128,73.533 L290.128,64.079 C289.013,63.196 287.689,62.586 285.861,62.586 C283.25,62.586 280.709,64.012 280.709,69.194 C280.709,74.616 283.08,75.905 285.354,75.905 C287.486,75.905 288.945,74.819 290.128,73.533 M276.914,69.294 C276.914,62.517 281.113,60.01 284.675,60.01 C287.32,60.01 288.98,60.96 290.128,62.11 L290.128,56.488 L287.555,56.488 L287.555,54.249 L293.112,54.249 C293.588,54.249 293.79,54.586 293.79,55.165 L293.79,74.855 C293.79,75.295 294.265,75.805 294.705,75.805 L296.029,75.805 L296.029,77.971 L290.909,77.971 C290.5,77.971 290.233,77.464 290.196,75.535 C288.945,76.991 287.014,78.174 284.302,78.174 C280.709,78.174 276.914,76.108 276.914,69.294" id="Fill-9" sketch:type="MSShapeGroup"></path>
            <path d="M305.959,77.091 C305.722,77.091 305.519,77.464 305.448,77.971 L302.875,77.971 L302.875,71.057 L305.551,71.057 L305.892,73.939 C307.077,75.089 308.296,75.735 310.839,75.735 C313.55,75.735 315.347,74.482 315.347,71.87 C315.347,68.654 312.973,68.278 309.516,67.331 C305.349,66.178 303.281,64.449 303.281,60.417 C303.281,56.148 306.434,54.012 310.805,54.012 C313.21,54.012 314.398,54.656 315.076,54.996 C315.312,54.996 315.55,54.586 315.582,54.249 L318.056,54.249 L318.056,60.517 L315.449,60.517 L315.11,58.151 C314.261,57.331 313.108,56.522 310.805,56.522 C308.33,56.522 306.635,57.471 306.635,60.044 C306.635,62.823 308.805,63.296 312.058,64.176 C316.602,65.399 318.904,66.858 318.904,71.227 C318.904,75.768 316.125,78.208 310.907,78.208 C308.23,78.208 306.874,77.598 305.959,77.091" id="Fill-10" sketch:type="MSShapeGroup"></path>
            <path d="M331.478,73.872 L331.478,70.01 C330.461,69.807 329.346,69.667 328.158,69.667 C325.582,69.667 324.024,70.583 324.024,72.786 C324.024,74.958 325.242,75.832 327.31,75.832 C329.176,75.832 330.394,75.025 331.478,73.872 M320.397,72.889 C320.397,69.224 323.311,67.498 327.413,67.498 C329.006,67.498 330.225,67.671 331.478,67.974 L331.478,65.632 C331.478,63.366 330.157,62.556 327.885,62.556 C325.549,62.556 324.226,63.366 323.276,64.212 L321.583,64.212 L321.583,61.4 C323.108,60.657 325.277,60.01 328.529,60.01 C332.698,60.01 335.139,61.336 335.139,65.265 L335.139,74.716 C335.139,75.395 335.577,75.805 336.225,75.805 L337.14,75.805 L337.14,77.634 C336.662,77.944 335.815,78.177 334.798,78.177 C332.869,78.177 331.85,77.398 331.581,75.768 C330.257,77.398 328.529,78.177 326.157,78.177 C322.771,78.177 320.397,76.412 320.397,72.889" id="Fill-11" sketch:type="MSShapeGroup"></path>
            <path d="M338.089,75.805 L339.407,75.805 C339.85,75.805 340.324,75.329 340.324,74.886 L340.324,63.466 C340.324,63.06 339.85,62.517 339.407,62.517 L337.95,62.517 L337.95,60.214 L343.136,60.214 C343.644,60.214 343.984,60.723 343.984,62.38 L343.984,62.89 C345.646,61.4 347.813,60.01 350.526,60.01 C352.523,60.01 354.32,60.657 354.829,62.996 C356.626,61.4 358.794,60.01 361.538,60.01 C363.844,60.01 365.977,60.924 365.977,64.419 L365.977,74.886 C365.977,75.365 366.453,75.805 366.893,75.805 L368.012,75.805 L368.012,77.971 L359.913,77.971 L359.913,75.805 L362.318,75.805 L362.318,65.569 C362.318,63.399 361.435,62.89 359.81,62.89 C358.117,62.89 356.455,63.672 355,64.552 L355,75.805 L357.234,75.805 L357.234,77.971 L349.069,77.971 L349.069,75.805 L351.306,75.805 L351.306,65.569 C351.306,63.399 350.42,62.89 348.831,62.89 C347.136,62.89 345.474,63.603 343.984,64.552 L343.984,75.805 L346.39,75.805 L346.39,77.971 L338.089,77.971 L338.089,75.805" id="Fill-12" sketch:type="MSShapeGroup"></path>
            <path d="M383.47,69.094 C383.47,63.939 381.201,62.686 378.822,62.686 C377.166,62.686 375.673,63.603 374.49,64.588 L374.49,74.006 C375.503,74.958 376.692,75.599 378.555,75.599 C380.897,75.599 383.47,74.449 383.47,69.094 M368.592,81.427 L369.915,81.427 C370.355,81.427 370.828,80.953 370.828,80.513 L370.828,63.466 C370.828,63.06 370.355,62.517 369.915,62.517 L368.452,62.517 L368.452,60.214 L373.64,60.214 C374.116,60.214 374.453,60.553 374.453,62.283 L374.453,62.72 C375.812,61.336 377.706,60.01 380.454,60.01 C383.807,60.01 387.262,62.283 387.262,68.787 C387.262,75.465 383.3,77.768 379.535,77.768 C377.099,77.768 375.606,77.125 374.49,76.142 L374.49,81.427 L377.132,81.427 L377.132,83.459 L368.592,83.459 L368.592,81.427" id="Fill-13" sketch:type="MSShapeGroup"></path>
            <path d="M388.349,75.805 L389.641,75.805 C390.114,75.805 390.584,75.329 390.584,74.886 L390.584,57.435 C390.584,57.028 390.114,56.488 389.641,56.488 L388.248,56.488 L388.248,54.249 L393.57,54.249 C394.046,54.249 394.246,54.553 394.246,55.165 L394.246,74.886 C394.246,75.365 394.719,75.805 395.159,75.805 L396.485,75.805 L396.485,77.971 L388.349,77.971 L388.349,75.805" id="Fill-14" sketch:type="MSShapeGroup"></path>
            <g id="Group-18" sketch:type="MSShapeGroup">
                <path d="M410.144,67.465 C410.004,63.706 408.545,62.283 405.975,62.283 C403.293,62.283 401.564,63.976 401.23,67.465 L410.144,67.465 L410.144,67.465 Z M397.335,69.164 C397.335,63.533 400.824,60.01 405.975,60.01 C410.957,60.01 413.836,62.62 413.836,68.551 C413.836,69.06 413.803,69.534 413.803,69.667 L401.157,69.667 C401.297,73.803 403.093,75.832 406.618,75.832 C409.125,75.832 410.277,74.958 411.191,73.836 L413.293,73.836 L413.293,76.348 C411.904,77.261 409.901,78.174 406.343,78.174 C400.381,78.174 397.335,74.716 397.335,69.164 L397.335,69.164 Z" id="Fill-15"></path>
                <path d="M84.823,41.753 C85.302,41.753 85.754,41.449 85.918,40.967 L87.884,35.142 C88.087,34.535 87.762,33.883 87.159,33.679 C86.552,33.473 85.897,33.794 85.693,34.401 L83.724,40.226 C83.524,40.833 83.846,41.489 84.453,41.695 C84.571,41.734 84.698,41.753 84.823,41.753 L84.823,41.753 Z M79.793,57.301 C80.278,57.301 80.733,56.989 80.897,56.5 L83.148,49.571 L84.346,45.803 C84.538,45.19 84.204,44.544 83.594,44.346 C82.984,44.158 82.338,44.492 82.147,45.099 L80.945,48.861 L78.701,55.79 C78.5,56.394 78.828,57.049 79.441,57.244 C79.556,57.283 79.677,57.301 79.793,57.301 L79.793,57.301 Z M91.807,42.116 C92.207,42.116 92.592,41.91 92.808,41.537 L97.304,33.767 C97.629,33.212 97.438,32.502 96.891,32.187 C96.336,31.868 95.63,32.053 95.311,32.605 L90.805,40.378 C90.49,40.93 90.678,41.64 91.231,41.959 C91.412,42.065 91.613,42.116 91.807,42.116 L91.807,42.116 Z M82.375,58.448 C82.778,58.448 83.163,58.242 83.379,57.871 L90.26,45.954 C90.581,45.402 90.393,44.692 89.835,44.377 C89.286,44.055 88.579,44.246 88.257,44.798 L81.376,56.713 C81.058,57.268 81.249,57.975 81.798,58.296 C81.98,58.4 82.177,58.448 82.375,58.448 L82.375,58.448 Z M96.236,47.271 C96.552,47.271 96.861,47.147 97.089,46.895 L113.165,29.134 C113.59,28.661 113.56,27.933 113.086,27.502 C112.613,27.072 111.882,27.111 111.454,27.581 L95.378,45.341 C94.95,45.815 94.986,46.546 95.463,46.977 C95.681,47.177 95.957,47.271 96.236,47.271 L96.236,47.271 Z M84.665,60.108 C84.984,60.108 85.296,59.983 85.527,59.728 L90.393,54.316 L93.676,50.687 C94.106,50.214 94.064,49.483 93.591,49.055 C93.123,48.624 92.389,48.664 91.961,49.14 L88.676,52.769 L83.81,58.181 C83.379,58.654 83.415,59.382 83.894,59.813 C84.113,60.01 84.392,60.108 84.665,60.108 L84.665,60.108 Z M105.866,48.157 C106.096,48.157 106.327,48.096 106.53,47.951 L113.165,43.297 C113.687,42.927 113.811,42.211 113.45,41.683 C113.077,41.161 112.358,41.033 111.837,41.404 L105.198,46.061 C104.68,46.428 104.552,47.147 104.919,47.671 C105.141,47.99 105.499,48.157 105.866,48.157 L105.866,48.157 Z M86.558,62.21 C86.795,62.21 87.031,62.137 87.238,61.986 L93.126,57.711 L102.419,50.936 C102.932,50.56 103.047,49.838 102.674,49.325 C102.295,48.806 101.573,48.697 101.054,49.07 L91.77,55.839 L85.879,60.123 C85.36,60.499 85.244,61.221 85.618,61.731 C85.848,62.046 86.2,62.21 86.558,62.21 L86.558,62.21 Z M105.198,56.986 C105.356,56.986 105.517,56.955 105.668,56.888 L134.135,44.192 C134.718,43.931 134.979,43.248 134.724,42.666 C134.463,42.083 133.778,41.822 133.192,42.083 L104.731,54.777 C104.146,55.038 103.882,55.723 104.142,56.3 C104.34,56.737 104.761,56.986 105.198,56.986 L105.198,56.986 Z M87.972,64.655 C88.13,64.655 88.288,64.625 88.439,64.561 L101.005,58.964 C101.591,58.703 101.855,58.017 101.591,57.435 C101.333,56.852 100.647,56.588 100.071,56.852 L87.499,62.444 C86.919,62.708 86.655,63.387 86.916,63.976 C87.107,64.404 87.529,64.655 87.972,64.655 L87.972,64.655 Z M67.991,93.711 C68.482,93.711 68.937,93.398 69.092,92.901 L70.29,89.145 L72.536,82.221 C72.736,81.615 72.402,80.963 71.795,80.765 C71.192,80.565 70.536,80.899 70.339,81.511 L68.091,88.432 L66.893,92.203 C66.698,92.81 67.032,93.459 67.639,93.653 C67.754,93.693 67.876,93.711 67.991,93.711 L67.991,93.711 Z M54.924,105.974 C55.324,105.974 55.713,105.767 55.925,105.4 L60.424,97.622 C60.746,97.075 60.558,96.366 60.006,96.047 C59.453,95.722 58.747,95.914 58.428,96.469 L53.926,104.241 C53.604,104.794 53.795,105.504 54.347,105.819 C54.53,105.922 54.733,105.974 54.924,105.974 L54.924,105.974 Z M61.978,93.78 C62.375,93.78 62.766,93.574 62.979,93.207 L69.854,81.287 C70.181,80.732 69.987,80.031 69.435,79.709 C68.883,79.391 68.173,79.582 67.851,80.134 L60.979,92.048 C60.661,92.603 60.846,93.307 61.401,93.629 C61.586,93.732 61.781,93.78 61.978,93.78 L61.978,93.78 Z M35.231,114.909 C35.546,114.909 35.859,114.787 36.087,114.532 L55.858,92.664 C56.286,92.191 56.25,91.457 55.779,91.032 C55.3,90.598 54.572,90.637 54.144,91.111 L34.375,112.982 C33.945,113.452 33.984,114.187 34.457,114.617 C34.679,114.812 34.958,114.909 35.231,114.909 L35.231,114.909 Z M58.41,89.245 C58.728,89.245 59.044,89.12 59.271,88.866 L62.56,85.237 L67.426,79.828 C67.851,79.351 67.821,78.617 67.345,78.193 C66.868,77.768 66.14,77.804 65.712,78.281 L60.843,83.69 L57.56,87.319 C57.13,87.789 57.166,88.52 57.639,88.945 C57.864,89.151 58.137,89.245 58.41,89.245 L58.41,89.245 Z M38.156,97.221 C38.383,97.221 38.611,97.157 38.817,97.012 L46.038,91.945 C46.559,91.578 46.687,90.856 46.317,90.334 C45.953,89.815 45.23,89.685 44.709,90.055 L37.488,95.122 C36.969,95.486 36.842,96.208 37.209,96.732 C37.433,97.051 37.792,97.221 38.156,97.221 L38.156,97.221 Z M49.502,89.157 C49.739,89.157 49.976,89.084 50.182,88.936 L59.465,82.167 L65.357,77.883 C65.873,77.513 65.989,76.788 65.612,76.275 C65.236,75.759 64.514,75.638 64.004,76.014 L58.106,80.298 L48.82,87.063 C48.304,87.446 48.192,88.168 48.568,88.68 C48.792,88.993 49.144,89.157 49.502,89.157 L49.502,89.157 Z M27.992,91.363 C28.15,91.363 28.307,91.329 28.462,91.262 L46.505,83.229 C47.087,82.968 47.348,82.285 47.087,81.703 C46.832,81.12 46.15,80.856 45.567,81.117 L27.525,89.151 C26.942,89.412 26.678,90.094 26.936,90.674 C27.13,91.105 27.549,91.363 27.992,91.363 L27.992,91.363 Z M50.695,81.251 C50.852,81.251 51.013,81.226 51.165,81.147 L63.737,75.559 C64.32,75.295 64.581,74.616 64.32,74.033 C64.065,73.451 63.379,73.186 62.797,73.447 L50.224,79.042 C49.642,79.303 49.381,79.982 49.642,80.571 C49.83,80.996 50.252,81.251 50.695,81.251 L50.695,81.251 Z M118.25,61.172 C118.329,61.172 118.408,61.166 118.493,61.148 L132.734,58.12 C133.362,57.987 133.759,57.374 133.629,56.749 C133.495,56.124 132.879,55.727 132.261,55.86 L118.013,58.885 C117.388,59.018 116.988,59.634 117.121,60.256 C117.243,60.802 117.716,61.172 118.25,61.172 L118.25,61.172 Z M104.816,63.927 C104.889,63.927 104.968,63.915 105.041,63.903 L113.508,62.21 C114.136,62.083 114.543,61.476 114.415,60.848 C114.294,60.226 113.687,59.813 113.056,59.941 L104.594,61.64 C103.967,61.761 103.56,62.368 103.681,62.999 C103.797,63.545 104.276,63.927 104.816,63.927 L104.816,63.927 Z M88.846,67.343 C88.922,67.343 89.004,67.337 89.082,67.319 L96.212,65.805 L100.074,64.959 C100.699,64.822 101.09,64.206 100.957,63.581 C100.817,62.956 100.204,62.565 99.583,62.708 L95.726,63.545 L88.603,65.056 C87.978,65.192 87.58,65.805 87.711,66.427 C87.826,66.973 88.312,67.343 88.846,67.343 L88.846,67.343 Z M102.899,70.159 C103.536,70.159 104.051,69.637 104.051,69 C104.051,68.366 103.536,67.847 102.899,67.847 L89.137,67.847 C88.5,67.847 87.987,68.363 87.987,69 C87.987,69.637 88.5,70.156 89.137,70.156 L102.899,70.159 L102.899,70.159 Z M129.16,81.615 C129.694,81.615 130.173,81.242 130.288,80.698 C130.428,80.077 130.031,79.461 129.403,79.327 L105.987,74.285 C105.362,74.148 104.749,74.546 104.613,75.171 C104.479,75.796 104.877,76.412 105.499,76.542 L128.92,81.584 C128.999,81.603 129.081,81.615 129.16,81.615 L129.16,81.615 Z M100.751,75.511 C101.285,75.511 101.764,75.14 101.879,74.6 C102.013,73.972 101.618,73.363 100.993,73.223 L96.206,72.198 L89.088,70.681 C88.463,70.547 87.848,70.947 87.711,71.573 C87.58,72.198 87.984,72.81 88.603,72.944 L95.726,74.455 L100.508,75.486 C100.59,75.504 100.672,75.511 100.751,75.511 L100.751,75.511 Z M117.482,88.929 C117.919,88.929 118.338,88.684 118.532,88.265 C118.796,87.682 118.55,86.991 117.971,86.727 L110.28,83.15 C109.701,82.877 109.012,83.132 108.742,83.708 C108.475,84.285 108.724,84.976 109.306,85.246 L116.997,88.823 C117.155,88.896 117.322,88.929 117.482,88.929 L117.482,88.929 Z M105.125,83.277 C105.574,83.277 105.993,83.022 106.181,82.589 C106.442,82.006 106.178,81.324 105.596,81.066 L95.096,76.408 L88.439,73.447 C87.857,73.186 87.174,73.451 86.913,74.033 C86.655,74.616 86.916,75.298 87.499,75.559 L94.155,78.52 L104.658,83.18 C104.813,83.244 104.974,83.277 105.125,83.277 L105.125,83.277 Z M144.05,119.975 C144.408,119.975 144.76,119.814 144.988,119.502 C145.364,118.986 145.252,118.261 144.736,117.885 L102.498,87.1 C101.979,86.727 101.26,86.839 100.884,87.355 C100.508,87.874 100.617,88.593 101.136,88.969 L143.374,119.754 C143.577,119.902 143.817,119.975 144.05,119.975 L144.05,119.975 Z M97.69,86.196 C98.044,86.196 98.396,86.029 98.621,85.72 C98.997,85.201 98.882,84.476 98.366,84.102 L87.238,76.014 C86.722,75.638 86,75.753 85.624,76.269 C85.248,76.788 85.363,77.513 85.879,77.883 L97.007,85.971 C97.213,86.123 97.45,86.196 97.69,86.196 L97.69,86.196 Z M51.408,75.329 C51.49,75.329 51.571,75.325 51.656,75.298 L55.509,74.458 L62.633,72.944 C63.258,72.81 63.659,72.198 63.525,71.576 C63.391,70.954 62.779,70.553 62.154,70.687 L55.024,72.2 L51.159,73.047 C50.54,73.186 50.145,73.796 50.279,74.424 C50.397,74.961 50.88,75.329 51.408,75.329 L51.408,75.329 Z M43.24,70.159 C43.874,70.159 44.393,69.643 44.393,69 C44.393,68.366 43.874,67.847 43.24,67.847 L32.2,67.835 C31.566,67.835 31.044,68.351 31.044,68.988 C31.044,69.628 31.563,70.147 32.197,70.147 L43.234,70.159 L43.24,70.159 L43.24,70.159 Z M62.099,70.162 C62.736,70.162 63.252,69.643 63.252,69.006 C63.252,68.366 62.736,67.847 62.099,67.847 L48.337,67.847 C47.7,67.847 47.181,68.366 47.181,69 C47.181,69.637 47.7,70.156 48.337,70.159 L62.099,70.162 L62.099,70.162 Z M45.492,63.748 C46.026,63.748 46.505,63.375 46.626,62.838 C46.757,62.213 46.365,61.594 45.74,61.457 L1.403,51.84 C0.778,51.704 0.165,52.101 0.026,52.723 C-0.108,53.345 0.293,53.964 0.915,54.097 L45.249,63.721 C45.334,63.739 45.416,63.748 45.492,63.748 L45.492,63.748 Z M62.393,67.346 C62.927,67.346 63.41,66.973 63.525,66.43 C63.652,65.805 63.258,65.195 62.633,65.062 L55.516,63.551 L50.725,62.519 C50.103,62.386 49.487,62.786 49.354,63.405 C49.22,64.03 49.618,64.643 50.239,64.783 L55.033,65.805 L62.154,67.322 C62.233,67.337 62.311,67.346 62.393,67.346 L62.393,67.346 Z M41.444,54.965 C41.881,54.965 42.297,54.716 42.494,54.292 C42.761,53.715 42.512,53.029 41.933,52.757 L33.35,48.767 C32.773,48.503 32.088,48.752 31.821,49.328 C31.548,49.908 31.797,50.596 32.379,50.863 L40.959,54.856 C41.117,54.929 41.284,54.965 41.444,54.965 L41.444,54.965 Z M63.27,64.658 C63.71,64.658 64.132,64.404 64.32,63.976 C64.581,63.387 64.32,62.708 63.737,62.447 L57.081,59.486 L46.575,54.826 C45.995,54.568 45.306,54.831 45.049,55.42 C44.794,56.003 45.055,56.682 45.637,56.943 L56.146,61.597 L62.797,64.561 C62.948,64.631 63.106,64.658 63.27,64.658 L63.27,64.658 Z M49.42,51.124 C49.775,51.124 50.127,50.96 50.355,50.648 C50.731,50.132 50.616,49.407 50.097,49.031 L34.12,37.426 C33.608,37.05 32.883,37.168 32.506,37.678 C32.133,38.2 32.245,38.919 32.764,39.298 L48.744,50.903 C48.947,51.051 49.184,51.124 49.42,51.124 L49.42,51.124 Z M64.681,62.21 C65.036,62.21 65.388,62.046 65.612,61.731 C65.989,61.221 65.879,60.493 65.357,60.123 L54.226,52.034 C53.71,51.658 52.988,51.773 52.615,52.286 C52.236,52.805 52.354,53.527 52.87,53.9 L64.004,61.986 C64.208,62.137 64.447,62.21 64.681,62.21 L64.681,62.21 Z M110.316,108.807 C110.593,108.807 110.872,108.707 111.09,108.513 C111.567,108.082 111.6,107.354 111.175,106.881 L105.574,100.655 C105.144,100.188 104.416,100.143 103.942,100.574 C103.469,101.001 103.426,101.729 103.86,102.203 L109.458,108.425 C109.689,108.68 110.004,108.807 110.316,108.807 L110.316,108.807 Z M101.315,98.811 C101.588,98.811 101.858,98.72 102.079,98.523 C102.556,98.101 102.607,97.373 102.186,96.893 L96.485,90.413 C96.063,89.933 95.326,89.885 94.853,90.307 C94.374,90.725 94.325,91.457 94.747,91.939 L100.447,98.419 C100.678,98.677 100.993,98.811 101.315,98.811 L101.315,98.811 Z M92.201,88.538 C92.48,88.538 92.756,88.441 92.978,88.241 C93.448,87.81 93.484,87.076 93.057,86.606 L90.402,83.69 L85.521,78.274 C85.096,77.804 84.365,77.768 83.894,78.193 C83.415,78.617 83.379,79.348 83.81,79.822 L88.688,85.243 L91.346,88.162 C91.576,88.411 91.886,88.538 92.201,88.538 L92.201,88.538 Z M106.112,123 C106.309,123 106.509,122.948 106.691,122.842 C107.243,122.524 107.431,121.82 107.113,121.261 L92.808,96.469 C92.489,95.914 91.786,95.722 91.231,96.047 C90.678,96.366 90.49,97.069 90.805,97.622 L105.11,122.421 C105.326,122.791 105.714,123 106.112,123 L106.112,123 Z M89.261,93.78 C89.456,93.78 89.653,93.732 89.835,93.629 C90.387,93.307 90.575,92.603 90.26,92.048 L83.379,80.134 C83.06,79.582 82.356,79.391 81.798,79.709 C81.249,80.031 81.058,80.732 81.379,81.287 L88.257,93.207 C88.473,93.574 88.858,93.78 89.261,93.78 L89.261,93.78 Z M89.692,113.616 C89.81,113.616 89.926,113.598 90.041,113.565 C90.648,113.367 90.985,112.718 90.787,112.111 L86.224,97.943 C86.03,97.333 85.381,97.002 84.771,97.197 C84.164,97.394 83.834,98.043 84.028,98.65 L88.591,112.821 C88.745,113.307 89.198,113.616 89.692,113.616 L89.692,113.616 Z M83.555,94.597 C83.67,94.597 83.785,94.581 83.904,94.545 C84.513,94.348 84.847,93.699 84.65,93.092 L83.148,88.432 L80.897,81.511 C80.703,80.899 80.047,80.565 79.444,80.765 C78.828,80.963 78.506,81.615 78.701,82.221 L80.945,89.142 L82.453,93.799 C82.608,94.29 83.063,94.597 83.555,94.597 L83.555,94.597 Z M79.01,102.272 C79.052,102.272 79.095,102.272 79.137,102.266 C79.771,102.2 80.229,101.632 80.163,100.995 L78.937,89.57 L78.185,82.328 C78.115,81.697 77.548,81.233 76.91,81.299 C76.28,81.366 75.818,81.936 75.885,82.567 L76.643,89.815 L77.863,101.244 C77.924,101.836 78.427,102.272 79.01,102.272 L79.01,102.272 Z M70.169,122.008 C70.755,122.008 71.255,121.565 71.319,120.973 L73.385,101.332 C73.452,100.692 72.988,100.124 72.357,100.061 C71.719,99.991 71.152,100.452 71.085,101.089 L69.016,120.734 C68.953,121.365 69.417,121.935 70.048,122.002 C70.09,122.002 70.13,122.008 70.169,122.008 L70.169,122.008 Z M72.766,97.291 C73.352,97.291 73.852,96.851 73.919,96.256 L75.357,82.573 C75.418,81.936 74.959,81.372 74.323,81.299 C73.691,81.235 73.124,81.697 73.057,82.331 L71.616,96.014 C71.553,96.648 72.014,97.215 72.645,97.285 C72.687,97.288 72.724,97.291 72.766,97.291 L72.766,97.291 Z M66.571,60.11 C66.85,60.11 67.123,60.013 67.345,59.813 C67.821,59.382 67.851,58.654 67.426,58.181 L62.554,52.769 L59.89,49.844 C59.46,49.371 58.728,49.34 58.258,49.765 C57.785,50.196 57.755,50.927 58.182,51.4 L60.843,54.316 L65.712,59.728 C65.94,59.983 66.255,60.11 66.571,60.11 L66.571,60.11 Z M59.429,42.116 C59.623,42.116 59.824,42.065 60.006,41.959 C60.558,41.64 60.746,40.93 60.43,40.378 L46.122,15.585 C45.807,15.033 45.097,14.839 44.545,15.161 C43.993,15.482 43.805,16.186 44.12,16.744 L58.428,41.537 C58.64,41.91 59.029,42.116 59.429,42.116 L59.429,42.116 Z M68.859,58.448 C69.053,58.448 69.253,58.393 69.435,58.29 C69.984,57.969 70.175,57.268 69.854,56.713 L62.979,44.798 C62.663,44.246 61.953,44.055 61.401,44.377 C60.849,44.692 60.661,45.402 60.979,45.954 L67.851,57.871 C68.07,58.242 68.455,58.448 68.859,58.448 L68.859,58.448 Z M66.11,40.863 C66.225,40.863 66.346,40.842 66.462,40.809 C67.068,40.609 67.402,39.963 67.208,39.35 L61.061,20.264 C60.867,19.657 60.215,19.323 59.611,19.52 C59.001,19.711 58.668,20.367 58.865,20.973 L65.008,40.063 C65.169,40.554 65.618,40.863 66.11,40.863 L66.11,40.863 Z M71.437,57.301 C71.559,57.301 71.674,57.283 71.795,57.244 C72.402,57.049 72.736,56.394 72.536,55.79 L68.783,44.21 C68.585,43.6 67.939,43.267 67.329,43.461 C66.723,43.658 66.389,44.31 66.586,44.917 L68.091,49.571 L70.339,56.5 C70.497,56.989 70.952,57.301 71.437,57.301 L71.437,57.301 Z M71.689,32.969 C71.725,32.969 71.759,32.963 71.792,32.963 C72.429,32.906 72.9,32.341 72.842,31.707 L72.126,23.631 C72.068,22.994 71.51,22.524 70.873,22.578 C70.236,22.636 69.769,23.2 69.826,23.831 L70.539,31.914 C70.594,32.514 71.101,32.969 71.689,32.969 L71.689,32.969 Z M74.204,56.713 C74.247,56.713 74.283,56.706 74.323,56.706 C74.959,56.64 75.418,56.07 75.357,55.438 L74.592,48.19 L73.373,36.762 C73.306,36.131 72.739,35.67 72.105,35.739 C71.464,35.806 71.007,36.373 71.073,37.011 L72.296,48.436 L73.057,55.675 C73.118,56.27 73.619,56.713 74.204,56.713 L74.204,56.713 Z M79.004,37.951 C79.589,37.951 80.09,37.511 80.15,36.92 L83.931,0.974 C83.997,0.337 83.54,-0.23 82.902,-0.297 C82.268,-0.361 81.698,0.097 81.637,0.728 L77.851,36.677 C77.79,37.314 78.251,37.878 78.882,37.945 C78.925,37.951 78.964,37.951 79.004,37.951 L79.004,37.951 Z M77.035,56.706 C76.995,56.706 76.953,56.706 76.91,56.701 C76.28,56.634 75.818,56.063 75.885,55.438 L77.323,41.75 C77.39,41.119 77.954,40.657 78.591,40.724 C79.228,40.794 79.686,41.361 79.62,41.992 L78.185,55.675 C78.124,56.27 77.617,56.706 77.035,56.706 L77.035,56.706 Z" id="Fill-17"></path>
            </g>
        </g>
    </g>
</svg>