<?xml version="1.0" encoding="UTF-8" standalone="no"?>
<svg width="220px" height="130px" viewBox="0 0 220 130" version="1.1" xmlns="http://www.w3.org/2000/svg" xmlns:xlink="http://www.w3.org/1999/xlink" xmlns:sketch="http://www.bohemiancoding.com/sketch/ns">
    <!-- Generator: Sketch 3.0.4 (8053) - http://www.bohemiancoding.com/sketch -->
    <title>Artboard 26</title>
    <desc>Created with Sketch.</desc>
    <defs></defs>
    <g id="Page-1" stroke="none" stroke-width="1" fill="none" fill-rule="evenodd" sketch:type="MSPage">
        <g id="Artboard-26" sketch:type="MSArtboardGroup" fill="#4681CF">
            <g id="Shape-2-+-Group-3" sketch:type="MSLayerGroup" transform="translate(10.000000, 7.000000)">
                <path d="M154.796476,54.7004662 L117.300441,54.7004662 L136.044934,35.86125 L124.095154,23.8561622 L93.3938326,54.7004662 L69.8281938,54.7004662 L112.298678,12.0042027 L100.348899,-1.42108547e-14 L45.8995595,54.7004662 L29,71.6782432 L171.696916,71.6782432 L154.796476,54.7004662 Z" id="Shape-2" sketch:type="MSShapeGroup"></path>
                <g id="Group-3" transform="translate(0.000000, 87.000000)" sketch:type="MSShapeGroup">
                    <path d="M-0.0599118943,0.273506757 L18.2246696,0.273506757 L18.2246696,5.84277703 L5.94449339,5.84277703 L5.94449339,11.4111622 L17.3013216,11.4111622 L17.3013216,16.9795473 L5.94449339,16.9795473 L5.94449339,27.6525068 L-0.059030837,27.6525068 L-0.059030837,0.273506757 L-0.0599118943,0.273506757 Z" id="Shape"></path>
                    <path d="M48.4052863,17.0946149 C48.4052863,23.5543311 44.4784141,28.348223 36.9330396,28.348223 C29.3497797,28.348223 25.4237885,23.5534459 25.4237885,17.0946149 L25.4237885,0.272621622 L31.4281938,0.272621622 L31.4281938,16.8644797 C31.4281938,20.2279932 33.738326,22.7789527 36.9330396,22.7789527 C40.0898678,22.7789527 42.4,20.2279932 42.4,16.8644797 L42.4,0.272621622 L48.4052863,0.272621622 L48.4052863,17.0946149 L48.4052863,17.0946149 Z" id="Shape"></path>
                    <path d="M57.0651982,0.273506757 L63.0696035,0.273506757 L63.0696035,22.0841216 L74.1955947,22.0841216 L74.1955947,27.6525068 L57.0643172,27.6525068 L57.0643172,0.273506757 L57.0651982,0.273506757 Z" id="Shape"></path>
                    <path d="M98.215859,7.38822297 C97.0220264,5.95784459 95.2907489,5.14529054 93.0581498,5.14529054 C88.5145374,5.14529054 85.1656388,8.85843243 85.1656388,13.9638919 C85.1656388,19.0684662 88.5145374,22.7798378 92.8625551,22.7798378 C95.2898678,22.7798378 97.2537445,21.6990878 98.4863436,19.8429595 L103.490749,23.593277 C101.218502,26.8426081 97.3682819,28.3491081 93.6343612,28.3491081 C85.1251101,28.3491081 78.9286344,22.7426622 78.9286344,13.9638919 C78.9286344,5.18423649 85.1259912,-0.42397973 93.6343612,-0.42397973 C96.676652,-0.42397973 100.52511,0.621364865 102.834361,3.59718919 L98.215859,7.38822297 L98.215859,7.38822297 Z" id="Shape"></path>
                    <path d="M109.65022,0.273506757 L120.197357,0.273506757 C125.777974,0.273506757 130.47489,2.20664189 130.47489,8.58935135 C130.47489,12.4175608 128.436123,15.3942703 124.585022,16.0908716 L131.515419,27.6525068 L124.317181,27.6525068 L118.617621,16.7078108 L115.655507,16.7078108 L115.655507,27.6525068 L109.65022,27.6525068 L109.65022,0.273506757 L109.65022,0.273506757 Z M115.656388,11.6050068 L119.198238,11.6050068 C121.391189,11.6050068 124.238767,11.5271149 124.238767,8.54775 C124.238767,5.80206081 121.77533,5.37808108 119.58326,5.37808108 L115.657269,5.37808108 L115.657269,11.6050068 L115.656388,11.6050068 Z" id="Shape"></path>
                    <path d="M160.461674,17.0946149 C160.461674,23.5543311 156.536564,28.348223 148.989427,28.348223 C141.407048,28.348223 137.481057,23.5534459 137.481057,17.0946149 L137.481057,0.272621622 L143.484581,0.272621622 L143.484581,16.8644797 C143.484581,20.2279932 145.793833,22.7789527 148.989427,22.7789527 C152.148018,22.7789527 154.457269,20.2279932 154.457269,16.8644797 L154.457269,0.272621622 L160.460793,0.272621622 L160.460793,17.0946149 L160.461674,17.0946149 Z" id="Shape"></path>
                    <path d="M168.893392,0.273506757 L177.978855,0.273506757 L184.254626,18.1408446 L184.328634,18.1408446 L190.64141,0.273506757 L199.690749,0.273506757 L199.690749,27.6525068 L193.682819,27.6525068 L193.682819,6.65533108 L193.608811,6.65533108 L186.447577,27.6525068 L181.863436,27.6525068 L174.973568,6.65533108 L174.897797,6.65533108 L174.897797,27.6525068 L168.894273,27.6525068 L168.894273,0.273506757 L168.893392,0.273506757 Z" id="Shape"></path>
                </g>
            </g>
        </g>
    </g>
</svg>