<?xml version="1.0" encoding="UTF-8" standalone="no"?>
<svg width="460px" height="51px" viewBox="0 0 460 51" version="1.1" xmlns="http://www.w3.org/2000/svg" xmlns:xlink="http://www.w3.org/1999/xlink" xmlns:sketch="http://www.bohemiancoding.com/sketch/ns">
    <!-- Generator: Sketch 3.0.4 (8053) - http://www.bohemiancoding.com/sketch -->
    <title>Shape 2 + Group 3</title>
    <desc>Created with Sketch.</desc>
    <defs></defs>
    <g id="Page-1" stroke="none" stroke-width="1" fill="none" fill-rule="evenodd" sketch:type="MSPage">
        <g id="Artboard-26" sketch:type="MSArtboardGroup" transform="translate(-9.000000, -9.000000)" fill="#4681CF">
            <g id="Shape-2-+-Group-3" sketch:type="MSLayerGroup" transform="translate(9.000000, 10.000000)">
                <path d="M88.1351852,38.1475309 L61.8648148,38.1475309 L74.9975309,25.0092593 L66.6253086,16.637037 L45.1154321,38.1475309 L28.6049383,38.1475309 L58.3604938,8.37160494 L49.9882716,-7.10542736e-15 L11.8401235,38.1475309 L0,49.9876543 L99.9759259,49.9876543 L88.1351852,38.1475309 Z" id="Shape-2" sketch:type="MSShapeGroup"></path>
                <g id="Group-3" transform="translate(115.000000, 0.000000)" sketch:type="MSShapeGroup">
                    <path d="M-0.103348018,0.471563374 L31.4375551,0.471563374 L31.4375551,10.0737535 L10.2542511,10.0737535 L10.2542511,19.6744175 L29.8447797,19.6744175 L29.8447797,29.2750815 L10.2542511,29.2750815 L10.2542511,47.6767358 L-0.101828194,47.6767358 L-0.101828194,0.471563374 L-0.103348018,0.471563374 Z" id="Shape"></path>
                    <path d="M83.4991189,29.4734739 C83.4991189,40.6109157 76.7252643,48.8762465 63.7094934,48.8762465 C50.62837,48.8762465 43.8560352,40.6093896 43.8560352,29.4734739 L43.8560352,0.470037279 L54.2136344,0.470037279 L54.2136344,29.0766892 C54.2136344,34.8758504 58.1986123,39.2740564 63.7094934,39.2740564 C69.155022,39.2740564 73.14,34.8758504 73.14,29.0766892 L73.14,0.470037279 L83.4991189,0.470037279 L83.4991189,29.4734739 L83.4991189,29.4734739 Z" id="Shape"></path>
                    <path d="M98.437467,0.471563374 L108.795066,0.471563374 L108.795066,38.0760718 L127.987401,38.0760718 L127.987401,47.6767358 L98.4359471,47.6767358 L98.4359471,0.471563374 L98.437467,0.471563374 Z" id="Shape"></path>
                    <path d="M169.422357,12.7383155 C167.362996,10.2721459 164.376542,8.87119059 160.525308,8.87119059 C152.687577,8.87119059 146.910727,15.2731594 146.910727,24.0756757 C146.910727,32.8766659 152.687577,39.2755825 160.187907,39.2755825 C164.375022,39.2755825 167.762709,37.4122204 169.888943,34.2119991 L178.521542,40.6780638 C174.601916,46.2803588 167.960286,48.8777726 161.519273,48.8777726 C146.840815,48.8777726 136.151894,39.2114865 136.151894,24.0756757 C136.151894,8.93833877 146.842335,-0.730999534 161.519273,-0.730999534 C166.767225,-0.730999534 173.405815,1.07131873 177.389273,6.20205033 L169.422357,12.7383155 L169.422357,12.7383155 Z" id="Shape"></path>
                    <path d="M189.14663,0.471563374 L207.340441,0.471563374 C216.967004,0.471563374 225.069185,3.80455499 225.069185,14.8092265 C225.069185,21.4095876 221.552313,26.5418453 214.909163,27.7428821 L226.864097,47.6767358 L214.447137,47.6767358 L204.615396,28.8065704 L199.505749,28.8065704 L199.505749,47.6767358 L189.14663,47.6767358 L189.14663,0.471563374 L189.14663,0.471563374 Z M199.507269,20.0086323 L205.61696,20.0086323 C209.399802,20.0086323 214.311872,19.874336 214.311872,14.7375 C214.311872,10.0035531 210.062445,9.27255359 206.281123,9.27255359 L199.508789,9.27255359 L199.508789,20.0086323 L199.507269,20.0086323 Z" id="Shape"></path>
                    <path d="M276.796388,29.4734739 C276.796388,40.6109157 270.025573,48.8762465 257.006762,48.8762465 C243.927159,48.8762465 237.154824,40.6093896 237.154824,29.4734739 L237.154824,0.470037279 L247.510903,0.470037279 L247.510903,29.0766892 C247.510903,34.8758504 251.494361,39.2740564 257.006762,39.2740564 C262.45533,39.2740564 266.438789,34.8758504 266.438789,29.0766892 L266.438789,0.470037279 L276.794868,0.470037279 L276.794868,29.4734739 L276.796388,29.4734739 Z" id="Shape"></path>
                    <path d="M291.341101,0.471563374 L307.013524,0.471563374 L317.839229,31.2773183 L317.966894,31.2773183 L328.856432,0.471563374 L344.466542,0.471563374 L344.466542,47.6767358 L334.102863,47.6767358 L334.102863,11.4747088 L333.975198,11.4747088 L321.62207,47.6767358 L313.714427,47.6767358 L301.829405,11.4747088 L301.6987,11.4747088 L301.6987,47.6767358 L291.342621,47.6767358 L291.342621,0.471563374 L291.341101,0.471563374 Z" id="Shape"></path>
                </g>
            </g>
        </g>
    </g>
</svg>